<svg xmlns="http://www.w3.org/2000/svg" style="display:none">
  <symbol id="ic-home" viewBox="0 0 24 24" fill="currentColor">
    <path d="M23 9v2h-2v7a3 3 0 01-3 3h-4v-6h-4v6H6a3 3 0 01-3-3v-7H1V9l11-7 5 3.18V2h3v5.09z"/>
  </symbol>
  <symbol id="ic-jobs" viewBox="0 0 24 24" fill="currentColor">
    <path d="M17 6V5a3 3 0 00-3-3h-4a3 3 0 00-3 3v1H2v4a3 3 0 003 3h14a3 3 0 003-3V6zM9 5a1 1 0 011-1h4a1 1 0 011 1v1H9zm10 10a4 4 0 01-2 .54 4 4 0 01-2-.54H9a4 4 0 01-2 .54 4 4 0 01-2-.54H2v3a3 3 0 003 3h14a3 3 0 003-3v-3z"/>
  </symbol>
  <symbol id="ic-network" viewBox="0 0 24 24" fill="currentColor">
    <path d="M12 16v6H3v-6a3 3 0 013-3h3a3 3 0 013 3zm5.5-3A3.5 3.5 0 1014 9.5a3.5 3.5 0 003.5 3.5zm1 2h-2a2.5 2.5 0 00-2.5 2.5V22h7v-4.5a2.5 2.5 0 00-2.5-2.5zM7.5 2A4.5 4.5 0 1012 6.5 4.49 4.49 0 007.5 2z"/>
  </symbol>
  <symbol id="ic-analytics" viewBox="0 0 24 24" fill="currentColor">
    <path d="M21 3v18H3V3zm-6 6h-2v10h2zm-4 4H9v6h2zm8-2h-2v8h2zM7 15H5v4h2z"/>
  </symbol>
  <symbol id="ic-messaging" viewBox="0 0 24 24" fill="currentColor">
    <path d="M16 4H8a7 7 0 000 14h4v4l8.1-7.9A7 7 0 0016 4z"/>
  </symbol>
  <symbol id="ic-connections" viewBox="0 0 24 24" fill="currentColor">
    <path d="M9 2a4.5 4.5 0 100 9 4.5 4.5 0 000-9zm6 10H3a3 3 0 00-3 3v2a1 1 0 001 1h16a1 1 0 001-1v-2a3 3 0 00-3-3zm6.5-7h-3a2.5 2.5 0 000 5h3a2.5 2.5 0 000-5zM22 12h-4a2 2 0 00-2 2v1.5a.5.5 0 00.5.5H24a.5.5 0 00.5-.5V14a2 2 0 00-2-2z"/>
  </symbol>
  <symbol id="ic-ai" viewBox="0 0 24 24" fill="currentColor">
    <path d="M12 2L9.19 8.63 2 9.24l5.46 4.73L5.82 21 12 17.27 18.18 21l-1.64-7.03L22 9.24l-7.19-.61z"/>
  </symbol>
  <symbol id="ic-user" viewBox="0 0 24 24" fill="currentColor">
    <path d="M12 2a5 5 0 100 10 5 5 0 000-10zm0 12c-5.33 0-8 2.67-8 4v2h16v-2c0-1.33-2.67-4-8-4z"/>
  </symbol>
  <symbol id="ic-search" viewBox="0 0 24 24" fill="currentColor">
    <path d="M21.71 20.29l-4.95-4.95A7.96 7.96 0 0018 11a8 8 0 10-8 8 7.96 7.96 0 004.34-1.24l4.95 4.95a1 1 0 001.42-1.42zM4 11a6 6 0 1112 0 6 6 0 01-12 0z"/>
  </symbol>
  <symbol id="ic-location" viewBox="0 0 24 24" fill="currentColor">
    <path d="M12 2C8.13 2 5 5.13 5 9c0 5.25 7 13 7 13s7-7.75 7-13c0-3.87-3.13-7-7-7zm0 9.5a2.5 2.5 0 110-5 2.5 2.5 0 010 5z"/>
  </symbol>
  <symbol id="ic-check" viewBox="0 0 24 24" fill="currentColor">
    <path d="M9 16.17L4.83 12l-1.42 1.41L9 19 21 7l-1.41-1.41z"/>
  </symbol>
  <symbol id="ic-arrow-right" viewBox="0 0 24 24" fill="currentColor">
    <path d="M12 4l-1.41 1.41L16.17 11H4v2h12.17l-5.58 5.59L12 20l8-8z"/>
  </symbol>
  <symbol id="ic-refresh" viewBox="0 0 24 24" fill="currentColor">
    <path d="M17.65 6.35A7.96 7.96 0 0012 4a8 8 0 108 8h-2a6 6 0 11-1.76-4.24L14 10h7V3z"/>
  </symbol>
  <symbol id="ic-send" viewBox="0 0 24 24" fill="currentColor">
    <path d="M2.01 21L23 12 2.01 3 2 10l15 2-15 2z"/>
  </symbol>
  <symbol id="ic-add" viewBox="0 0 24 24" fill="currentColor">
    <path d="M19 13h-6v6h-2v-6H5v-2h6V5h2v6h6z"/>
  </symbol>
  <symbol id="ic-close" viewBox="0 0 24 24" fill="currentColor">
    <path d="M19 6.41L17.59 5 12 10.59 6.41 5 5 6.41 10.59 12 5 17.59 6.41 19 12 13.41 17.59 19 19 17.59 13.41 12z"/>
  </symbol>
  <symbol id="ic-bell" viewBox="0 0 24 24" fill="currentColor">
    <path d="M12 22a2.1 2.1 0 002.1-2.1H9.9A2.1 2.1 0 0012 22zm6.3-6.3V10.5c0-3.23-1.72-5.94-4.73-6.66v-.71a1.57 1.57 0 10-3.14 0v.71c-3 .72-4.73 3.43-4.73 6.66v5.2L3.9 17.8v1.05h16.2V17.8z"/>
  </symbol>
  <symbol id="ic-image" viewBox="0 0 24 24" fill="currentColor">
    <path d="M21 19V5a2 2 0 00-2-2H5a2 2 0 00-2 2v14a2 2 0 002 2h14a2 2 0 002-2zM8.5 13.5l2.5 3.01L14.5 12l4.5 6H5z"/>
  </symbol>
  <symbol id="ic-video" viewBox="0 0 24 24" fill="currentColor">
    <path d="M17 10.5V7a1 1 0 00-1-1H4a1 1 0 00-1 1v10a1 1 0 001 1h12a1 1 0 001-1v-3.5l4 4v-11z"/>
  </symbol>
  <symbol id="ic-article" viewBox="0 0 24 24" fill="currentColor">
    <path d="M14 2H6a2 2 0 00-2 2v16a2 2 0 002 2h12a2 2 0 002-2V8zM8 12h8v2H8zm0 4h8v2H8zm0-8h5v2H8z"/>
  </symbol>
  <symbol id="ic-thumb" viewBox="0 0 24 24" fill="currentColor">
    <path d="M1 21h4V9H1zM23 10a2 2 0 00-2-2h-6.31l.95-4.57.03-.32a1.5 1.5 0 00-.44-1.06L14.17 1 7.59 7.59A1.99 1.99 0 007 9v10a2 2 0 002 2h9a2 2 0 001.84-1.22l3.02-7.05c.09-.23.14-.47.14-.73z"/>
  </symbol>
  <symbol id="ic-comment" viewBox="0 0 24 24" fill="currentColor">
    <path d="M20 2H4a2 2 0 00-2 2v18l4-4h14a2 2 0 002-2V4a2 2 0 00-2-2z"/>
  </symbol>
  <symbol id="ic-trash" viewBox="0 0 24 24" fill="currentColor">
    <path d="M6 19a2 2 0 002 2h8a2 2 0 002-2V7H6zm2.46-7.12l1.41-1.41L12 12.59l2.12-2.12 1.41 1.41L13.41 14l2.12 2.12-1.41 1.41L12 15.41l-2.12 2.12-1.41-1.41L10.59 14zM15.5 4l-1-1h-5l-1 1H5v2h14V4z"/>
  </symbol>
  <symbol id="ic-share" viewBox="0 0 24 24" fill="currentColor">
    <path d="M18 16.08c-.76 0-1.44.3-1.96.77L8.91 12.7c.05-.23.09-.46.09-.7s-.04-.47-.09-.7l7.05-4.11c.54.5 1.25.81 2.04.81 1.66 0 3-1.34 3-3s-1.34-3-3-3-3 1.34-3 3c0 .24.04.47.09.7L8.04 9.81C7.5 9.31 6.79 9 6 9c-1.66 0-3 1.34-3 3s1.34 3 3 3c.79 0 1.5-.31 2.04-.81l7.12 4.16c-.05.21-.08.43-.08.65 0 1.61 1.31 2.92 2.92 2.92 1.61 0 2.92-1.31 2.92-2.92s-1.31-2.92-2.92-2.92z"/>
  </symbol>
</svg>
